<?xml version="1.0" standalone="no"?><!DOCTYPE svg PUBLIC "-//W3C//DTD SVG 1.1//EN" "http://www.w3.org/Graphics/SVG/1.1/DTD/svg11.dtd"><svg class="icon" width="26px" height="25.97px" viewBox="0 0 1025 1024" version="1.1" xmlns="http://www.w3.org/2000/svg"><path fill="#757575" d="M794.026667 281.984q96 0 162.986667 68.010667t66.986667 162.005333-66.986667 162.005333-162.986667 68.010667-164.010667-68.010667l-54.016-48 64-56.021333 50.005333 41.984q43.989333 43.989333 104.021333 43.989333t102.016-41.984 41.984-102.016-41.984-102.016-102.016-41.984-102.016 41.984q-141.994667 123.989333-180.010667 160l-120.021333 105.984q-66.005333 66.005333-162.005333 66.005333t-162.986667-68.010667-66.986667-162.005333 66.986667-162.005333 162.986667-68.010667 164.010667 68.010667l54.016 48-66.005333 56.021333-48-41.984q-43.989333-43.989333-104.021333-43.989333t-102.016 41.984-41.984 102.016 41.984 102.016 102.016 41.984 102.016-41.984q141.994667-123.989333 180.010667-160l120.021333-105.984q66.005333-66.005333 162.005333-66.005333z" /></svg>